<svg version="1.1" xmlns="http://www.w3.org/2000/svg" xmlns:xlink="http://www.w3.org/1999/xlink" preserveAspectRatio="xMidYMid meet" viewBox="666 380 321 126"><g data-item-type="text" data-item="Business" id="logo__item--business" class="logo__item">
                <g class="logo__item__inner" transform="translate(925 503.03355491459763) scale(1 1) rotate(0 0 0)">
                    <text data-part-id="logo__item--business" dy="0" dominant-baseline="auto" alignment-baseline="auto" font-family="Montserrat" font-size="32px" fill="#35495E" letter-spacing="0" font-weight="bold" font-style="normal" data-font-family="Montserrat" data-font-weight="bold" data-font-style="normal" data-ttf-url="/builder_assets/fontsttf/font-montserrat-bold-normal.ttf" data-font-filename="montserrat-bold-normal"></text>
                </g>
            </g><g data-item-type="text" id="logo__item--tagline_1" data-item="Tagline" class="logo__item">
    <g class="logo__item__inner" transform="translate(655.9921875 502.03355491459763) scale(9.156893389938604 9.156893389938604) rotate(-0.2822534041831123 11.39843689763744 12.249999727090344)">
        <text dy="0" dominant-baseline="auto" alignment-baseline="auto" font-family="Open Sans" font-size="18px" fill="#35495E" letter-spacing="1" data-font-family="Open Sans" data-font-weight="normal" data-font-style="italic" font-weight="normal" font-style="italic" data-ttf-url="/builder_assets/fontsttf/font-open-sans-normal-normal.ttf" data-part-id="logo__item--tagline_1__0" data-font-filename="open-sans-normal-italic">TP</text>
    </g>
</g><g data-item-type="image" data-item="Image" data-logo-item="" id="logo__item--logo_0" class="logo__item">
    <g class="logo__item__inner" transform="translate(851.2520417371595 368.5) scale(0.9819967512014424 0.9819967512014424) rotate(0 0 0)">
        
<g>
	<path fill="#35495E" d="M85.5,20.1c-30.7,0-55.6,24.9-55.6,55.6c0,30.7,24.9,55.6,55.6,55.6c10.9,0,21.2-3.2,29.8-8.6   C104.7,131.6,91,137,76,137c-33.8,0-61.1-27.4-61.1-61.1c0-33.8,27.4-61.1,61.1-61.1c14.2,0,27.3,4.9,37.7,13   C105.4,22.9,95.8,20.1,85.5,20.1z" data-part-id="logo__item--logo_0__0"></path>
	<path fill="#35495E" d="M90.1,121c1.2-0.2,2.5-0.5,3.7-0.9c4.9-2.3,9.4-5.3,12.4-9.4V52.4L90.1,65.3V121z" data-part-id="logo__item--logo_0__1"></path>
	<path fill="#E6362C" d="M49.1,104.1c4,5.9,9.5,10.7,16.1,13.8V80.1L49.1,91.5V104.1z" data-part-id="logo__item--logo_0__2"></path>
	<path fill="#019589" d="M69.3,119.5c4.1,1.4,8.5,2.2,13.1,2.2c1,0,2-0.1,2.9-0.1V66.9L69.3,78V119.5z" data-part-id="logo__item--logo_0__3"></path>
	<path fill="#0092C6" d="M111.9,113.9c17.8-17.8,17.8-46.8,0-64.6c-17.8-17.8-46.8-17.8-64.6,0C40.9,55.6,36.8,63.4,35,71.6   c1-11.4,5.8-22.5,14.5-31.2c19.6-19.6,51.4-19.6,71.1,0c19.6,19.6,19.6,51.4,0,71.1c-8.3,8.3-18.7,13.1-29.5,14.4   C98.7,123.8,105.9,119.9,111.9,113.9z" data-part-id="logo__item--logo_0__4"></path>
</g>

    </g>
</g></svg>